<svg width="18" height="16" xmlns="http://www.w3.org/2000/svg"><title>clothing-light</title><path d="M5.407 0h-.268c-.148 0-.462.109-.704.242l-3.844 2.137c-.492.289-.722.886-.512 1.418l1.31 3.275c.209.532.875.738 1.387.482l1.225-.588v8.277c0 .571.299.757.871.757h8.277c.573 0 .852-.186.852-.757v-8.277l1.235.572c.512.255 1.142.032 1.351-.5l1.333-3.311c.21-.532-.009-1.06-.501-1.349l-3.833-2.136c-.241-.133-.557-.242-.704-.242h-.268c-.276 0-.496.231-.604.485-.353.833-1.559 1.584-2.999 1.584-1.44 0-2.647-.751-2.999-1.584-.109-.254-.328-.485-.605-.485zm0 0" fill="#fff"/></svg>