<svg width="12" height="16" xmlns="http://www.w3.org/2000/svg"><title>devices</title><path d="M11 0h-10c-.553 0-1 .447-1 1v14c0 .553.447 1 1 1h10c.553 0 1-.447 1-1v-14c0-.553-.447-1-1-1zm-4 14.5c0 .276-.224.5-.5.5h-1c-.276 0-.5-.224-.5-.5v-1c0-.276.224-.5.5-.5h1c.276 0 .5.224.5.5v1zm3-2.5h-8v-10h8zm-6.5-6h5c.276 0 .5-.224.5-.5v-1c0-.276-.224-.5-.5-.5h-5c-.276 0-.5.224-.5.5v1c0 .276.224.5.5.5zm0 3h5c.276 0 .5-.224.5-.5v-1c0-.276-.224-.5-.5-.5h-5c-.276 0-.5.224-.5.5v1c0 .276.224.5.5.5zm0 0" fill="#000"/></svg>