<svg width="16" height="16" xmlns="http://www.w3.org/2000/svg"><title>dining</title><path d="M10 3c-.553 0-1-.447-1-1v-1c0-.553.447-1 1-1 .553 0 1 .447 1 1v1c0 .553-.447 1-1 1zm-3 0c-.553 0-1-.447-1-1v-1c0-.553.447-1 1-1 .553 0 1 .447 1 1v1c0 .553-.447 1-1 1zm6 0c-.553 0-1-.447-1-1v-1c0-.553.447-1 1-1 .553 0 1 .447 1 1v1c0 .553-.447 1-1 1zm2 1c.553 0 1 .447 1 1v8c0 1.654-1.346 3-3 3h-6c-1.302 0-2.401-.838-2.815-2h-1.185c-1.654 0-3-1.346-3-3v-2c0-1.654 1.359-3 3.031-3h.969v-1c0-.553.447-1 1-1zm-13 7v-2c0-.542.473-1 1.031-1h.969v4h-1c-.551 0-1-.449-1-1zm0 0" fill="#000"/></svg>