<svg width="16" height="16" xmlns="http://www.w3.org/2000/svg"><title>email</title><path d="M8 0c-4.418 0-8 3.582-8 8 0 4.31 3.41 7.813 7.678 7.983-.025.003.457-.01.525-.024 1.123-.092 2.247-.404 3.292-.999.479-.28.649-.89.37-1.37-.271-.479-.881-.649-1.36-.37-.876.49-1.806.732-2.747.769-3.199-.13-5.758-2.757-5.758-5.989 0-3.314 2.688-6 6-6 3.314 0 6 2.686 6 6v1c0 .552-.449 1-1 1-.551 0-1-.448-1-1v-1c0-2.209-1.791-4-4-4s-4 1.791-4 4 1.791 4 4 4c1.051 0 2-.414 2.715-1.078.55.654 1.363 1.078 2.285 1.078 1.656 0 3-1.375 3-3.156v-.844c0-4.418-3.582-8-8-8zm0 10c-1.104 0-2-.897-2-2s.896-2 2-2 2 .897 2 2-.896 2-2 2zm0 0" fill="#000"/></svg>