<svg width="16" height="16" xmlns="http://www.w3.org/2000/svg"><title>everything--light</title><path d="M8 0c-4.418 0-8 3.582-8 8s3.582 8 8 8 8-3.582 8-8-3.582-8-8-8zm-6 8c0-1.649.669-3.146 1.75-4.231.002 1.985.253 2.735 1.25 3.731 1 1 2.5 2.75 2.5 4.75 0 .879.241 1.5.512 1.75h-.012c-3.309 0-6-2.691-6-6zm8.148 5.601c.791-.908 1.726-2.353 1.102-3.601-1-2-4.5-.5-4.5-2.5s3.25.5 3.25-3.5c0-1.438-1.149-1.898-2.346-1.989l.346-.011c3.309 0 6 2.691 6 6 0 2.551-1.602 4.734-3.852 5.601zm0 0" fill="#fff"/></svg>