<svg width="16" height="17" xmlns="http://www.w3.org/2000/svg"><title>rss</title><path d="M1.466 12.976c.554 0 1.048.131 1.413.496.365.36.587.766.588 1.315-.001.549-.223 1.213-.586 1.213h-.002c-.362 1-.859.777-1.413.777-.553 0-1.047-.13-1.412-.493-.361-.361-.587-.805-.587-1.354 0-.55.226-1.02.587-1.38.365-.364.859-.574 1.412-.574zm-1.497-6.532c2.711.127 5.156 1.285 6.955 3.087 1.804 1.805 2.957 4.252 3.087 6.963.013.276-.211.506-.487.506h-2.067c-.276 0-.499-.23-.517-.504-.121-1.819-.884-3.519-2.179-4.81-1.292-1.296-2.985-2.061-4.792-2.182-.275-.019-.502-.242-.502-.518v-2.053c0-.277.227-.501.502-.489zm10.804-.757c2.787 2.786 4.553 6.596 4.685 10.807.009.276-.215.506-.491.506h-2.064c-.277 0-.499-.23-.51-.506-.258-6.738-5.691-12.177-12.42-12.438-.277-.011-.506-.234-.506-.51v-2.054c0-.276.229-.501.506-.492 4.209.133 8.012 1.896 10.8 4.687zm0 0" fill="#000"/></svg>