<svg width="16" height="16" xmlns="http://www.w3.org/2000/svg"><title>star-empty--light</title><path d="M12.426 15.899l-4.427-2.436-4.427 2.436c-.443.244-.735.031-.653-.478l.848-5.172-3.561-3.634c-.356-.363-.242-.721.256-.795l4.914-.747 2.228-4.725c.219-.464.573-.464.792 0l2.227 4.725 4.914.747c.498.074.612.432.256.795l-3.561 3.634.848 5.172c.081.509-.211.723-.654.478zm-9.009-8.642l2.303 2.351-.539 3.286 2.818-1.549 2.817 1.549-.539-3.286 2.303-2.351-3.181-.484-1.4-2.969-1.4 2.97-3.182.483zm0 0" fill="#fff"/></svg>