<svg width="16" height="16" xmlns="http://www.w3.org/2000/svg"><title>tools</title><path d="M-.004 14.004l5-5 2 2-5 5h-2zm15.715-11.715l-1.715 1.715-2-2 1.715-1.715c.391-.391 1.023-.391 1.414 0l.586.586c.391.391.391 1.023 0 1.414zm-4.455 6.975l.301-.12c.149-.04.299-.08.459-.1.16-.03.32-.04.48-.04 1.93 0 3.5 1.57 3.5 3.5 0 .55-.45 1-1 1s-1-.45-1-1c0-.83-.67-1.5-1.5-1.5l-.27.03-.07.01-.221.07-.109.06c-.29.13-.53.37-.66.66l-.061.11-.069.22-.011.07-.029.27c0 .83.67 1.5 1.5 1.5.55 0 1 .45 1 1s-.45 1-1 1c-1.93 0-3.5-1.57-3.5-3.5 0-.16.01-.32.04-.48l.09-.47.13-.29-4.52-4.52-.301.12c-.149.04-.299.08-.459.1-.16.03-.32.04-.48.04-1.93 0-3.5-1.57-3.5-3.5 0-.55.45-1 1-1s1 .45 1 1c0 .83.67 1.5 1.5 1.5s1.5-.67 1.5-1.5-.67-1.5-1.5-1.5c-.55 0-1-.45-1-1s.45-1 1-1c1.93 0 3.5 1.57 3.5 3.5 0 .16-.01.32-.04.48-.021.159-.06.31-.101.46l-.119.3 1.26 1.26 3-3 2 2-3 3zm0 0" fill="#000"/></svg>