<svg width="16" height="13" xmlns="http://www.w3.org/2000/svg"><title>twitter</title><path d="M15.995 1.539c-.589.262-1.221.438-1.885.518.678-.406 1.197-1.049 1.443-1.816-.635.377-1.338.65-2.085.797-.598-.64-1.452-1.038-2.395-1.038-1.814 0-3.283 1.471-3.283 3.283 0 .258.029.508.085.748-2.728-.137-5.147-1.443-6.767-3.43-.281.485-.443 1.049-.443 1.651 0 1.139.758 2.143 1.639 2.732-.539-.017-1.309-.166-1.309-.412v.043c0 1.59.953 2.916 2.454 3.219-.276.074-.654.115-.954.115-.212 0-.461-.021-.663-.061.418 1.305 1.608 2.254 3.044 2.281-1.123.879-2.55 1.404-4.087 1.404-.266 0-.532-.016-.789-.045 1.453.93 3.175 1.475 5.029 1.475 6.039 0 9.338-5.002 9.338-9.34l-.011-.426c.643-.462 1.199-1.04 1.639-1.698zm0 0" fill="#000"/></svg>